<svg width="32" height="32" viewBox="0 0 32 32" fill="none" xmlns="http://www.w3.org/2000/svg">
<path d="M20.4074 29.8431C19.7037 25.4222 19.0541 21.2454 18.364 16.8923L17.2543 17.8009C14.7833 19.9849 11.9415 21.7072 8.86395 22.8863C8.38004 23.0989 7.85104 23.188 7.32436 23.1454C6.79767 23.1028 6.28976 22.9299 5.84615 22.6422C3.93803 21.4217 1.96225 20.2826 0 19.1163C0.293995 18.6857 0.705706 18.3491 1.18577 18.1471C1.66583 17.9451 2.19387 17.8861 2.70656 17.9772C4.25271 18.1422 5.80697 18.2192 7.36183 18.2077C7.85002 18.2001 8.32344 18.0388 8.71511 17.7467C14.1282 13.1359 19.5413 8.50706 24.9544 3.86014C26.361 2.61934 28.1829 1.95589 30.0563 2.00228C31.7344 2.00228 32.4381 3.11428 31.7208 4.71449C31.3246 5.51674 30.7778 6.235 30.1104 6.83001C28.5271 8.28104 26.8761 9.65071 25.2251 11.0204C25.0109 11.1783 24.8342 11.3818 24.7079 11.6163C24.5815 11.8507 24.5086 12.1104 24.4943 12.3765C24.1425 16.9601 23.7094 21.5437 23.3576 26.1274C23.3545 26.5916 23.2382 27.048 23.0189 27.4569C22.7995 27.8658 22.4837 28.2148 22.099 28.4734C21.5118 28.9002 20.9471 29.3574 20.4074 29.8431V29.8431Z" fill="#47585B"/>
<path d="M5.49421 10.5729C6.75276 9.48799 7.63239 8.07764 9.66231 8.38954C11.6922 8.70145 13.7222 8.71501 15.8603 8.86418L16.5505 8.95911C15.0078 10.3152 13.6004 11.4543 12.1794 12.6341C12.0984 12.6931 12.006 12.7344 11.9081 12.7555C11.8102 12.7765 11.709 12.7767 11.611 12.7562C9.71645 12.1595 7.82185 11.5493 5.94079 10.9255C5.80546 10.8848 5.71073 10.7492 5.49421 10.5729Z" fill="#47585B"/>
</svg>
